<?xml version="1.0" encoding="utf-8"?>
<!-- Generator: Adobe Illustrator 26.1.0, SVG Export Plug-In . SVG Version: 6.00 Build 0)  -->
<svg version="1.1" id="Layer_1" xmlns="http://www.w3.org/2000/svg" xmlns:xlink="http://www.w3.org/1999/xlink" x="0px" y="0px"
	 viewBox="0 0 550 150" style="enable-background:new 0 0 550 150;" xml:space="preserve">
<style type="text/css">
	.st0{fill:#00A79D;}
	.st1{fill:#262262;}
	.st2{fill:#D2D3D4;}
</style>
<circle class="st0" cx="64.98" cy="74.88" r="52.25"/>
<g>
	<path class="st1" d="M144.48,74.81c0-6.6,2.24-12.17,6.72-16.59c4.48-4.42,10.05-6.66,16.78-6.66c6.72,0,12.3,2.24,16.78,6.66
		c4.55,4.42,6.79,9.99,6.79,16.59s-2.24,12.17-6.79,16.59c-4.48,4.42-10.05,6.66-16.78,6.66c-6.72,0-12.3-2.24-16.78-6.66
		C146.72,86.98,144.48,81.41,144.48,74.81z M177.27,84.48c2.5-2.63,3.71-5.83,3.71-9.67c0-3.84-1.22-7.04-3.71-9.61
		c-2.5-2.63-5.57-3.91-9.29-3.91c-3.65,0-6.72,1.28-9.22,3.91c-2.5,2.56-3.71,5.76-3.71,9.61c0,3.84,1.22,7.04,3.71,9.67
		c2.5,2.56,5.57,3.84,9.22,3.84C171.7,88.32,174.77,87.04,177.27,84.48z"/>
	<path class="st1" d="M235.87,55.09c3.78,2.31,6.66,5.44,8.52,9.35l-9.86,3.65c-2.24-4.16-6.4-6.79-11.46-6.79
		c-3.65,0-6.72,1.28-9.22,3.91c-2.5,2.56-3.71,5.76-3.71,9.61c0,3.84,1.22,7.04,3.71,9.67c2.5,2.56,5.57,3.84,9.22,3.84
		c5.06,0,9.22-2.63,11.46-6.79l9.86,3.65c-1.86,3.91-4.74,7.04-8.52,9.41c-3.78,2.31-8.07,3.46-12.81,3.46
		c-6.72,0-12.3-2.24-16.78-6.66s-6.72-9.99-6.72-16.59s2.24-12.17,6.72-16.59s10.05-6.66,16.78-6.66
		C227.87,51.56,232.09,52.72,235.87,55.09z"/>
	<path class="st1" d="M286.41,52.4v9.35h-23.31v8.2h19.6v9.35h-19.6v8.58h23.63v9.35h-33.81V52.4H286.41z"/>
	<path class="st1" d="M292.69,97.23l18.89-44.83h8.39l18.83,44.83h-10.57l-3.07-7.56h-18.76l-3.07,7.56H292.69z M315.8,66.81
		l-5.64,13.77h11.27L315.8,66.81z"/>
	<path class="st1" d="M346.1,97.23V52.4h9.03l21.33,27.47V52.4h9.8v44.83h-9.03L355.9,69.88v27.35H346.1z"/>
	<path class="st0" d="M433.07,62.71c-0.45-2.37-1.79-4.29-4.03-5.83c-2.24-1.54-5-2.31-8.2-2.31c-3.46,0-6.34,0.9-8.65,2.63
		c-2.31,1.73-3.46,3.91-3.46,6.6c0,2.31,1.09,4.16,2.56,5.38c0.7,0.58,1.73,1.09,2.95,1.67c2.5,1.02,4.16,1.41,7.43,2.18
		c3.39,0.7,5.51,1.28,8.39,2.56c4.1,1.73,6.4,4.61,6.66,9.41c0,3.71-1.47,6.79-4.48,9.16c-3.01,2.37-6.79,3.52-11.34,3.52
		c-4.16,0-7.75-1.02-10.69-3.01s-4.74-4.55-5.32-7.69l2.69-0.7c0.45,2.56,1.86,4.68,4.35,6.34c2.5,1.6,5.51,2.43,9.03,2.43
		c3.78,0,6.85-0.9,9.35-2.75s3.71-4.29,3.71-7.17s-1.34-5-3.97-6.47c-2.63-1.47-4.87-2.05-8.9-3.01c-3.52-0.77-5.32-1.22-8.33-2.5
		c-4.16-1.73-6.47-4.35-6.79-9.22c0-3.52,1.41-6.34,4.16-8.58c2.75-2.24,6.28-3.39,10.5-3.39c3.91,0,7.24,0.96,9.99,2.82
		c2.75,1.86,4.48,4.29,5.06,7.24L433.07,62.71z"/>
	<path class="st0" d="M482.52,52.4v2.56h-28.75v18.25h25.74v2.56h-25.74v18.89h29.07v2.56h-31.76V52.4H482.52z"/>
	<path class="st0" d="M531.77,52.4v2.56h-18.89v42.27h-2.69V54.96H491.3V52.4H531.77z"/>
</g>
<path class="st2" d="M73.29,23.27c-2.62,2.8-5.06,5.59-7.15,8.47c-3.44,4.76-6.05,9.65-6.96,14.25c-0.53,2.28-0.48,4.5-0.37,6.56
	c0.03,1.04,0.47,1.98,0.52,2.95c0.36,0.95,0.63,1.88,1.04,2.82c1.72,3.74,4.84,7.8,8.76,12.17c3.84,4.44,8.4,9.13,12.56,15.04
	c4.11,5.91,7.88,13.36,8.28,22.15c0.15,4.45-0.99,9.42-3.58,13.27c-0.55,0.85-1.15,1.64-1.79,2.36
	c19.36-7.6,33.06-26.46,33.06-48.52C117.67,48.65,98.4,27,73.29,23.27z"/>
<path class="st1" d="M70.22,120.75c1.75-1.98,2.82-4.07,3.14-5.85c0.32-1.8,0.06-3.36-0.51-5.19c-0.19-0.47-0.35-0.93-0.5-1.39
	l-0.77-1.5c-0.39-1-1.07-2-1.68-2.98c-1.29-1.95-2.89-3.98-4.67-6c-3.64-4.1-8.11-8.36-12.63-13.44
	c-4.4-5.12-9.22-11.28-11.79-19.56c-0.59-2.05-0.96-4.26-1.29-6.39c-0.07-2.19-0.24-4.42,0.05-6.53c0.37-2.1,0.52-4.25,1.21-6.23
	c0.59-2.01,1.41-3.91,2.3-5.73c3.73-7.27,9.5-12.4,15.52-15.99c0.71-0.41,1.43-0.8,2.15-1.17c-26.97,2.05-48.22,24.57-48.22,52.07
	c0,28.19,22.33,51.18,50.27,52.22C65.68,125.11,68.26,123.02,70.22,120.75z"/>
</svg>
