<?xml version="1.0" encoding="utf-8"?>
<svg viewBox="0 0 105.15 104.5" width="105.15" height="104.5" style="enable-background:new 0 0 105.15 104.5;" xmlns="http://www.w3.org/2000/svg">
  <defs>
    <style type="text/css">
	.st0{fill:#00A79D;}
	.st1{fill:#D2D3D4;}
	.st2{fill:#262262;}
</style>
  </defs>
  <circle class="st0" cx="52.45" cy="52.25" r="52.25"/>
  <path class="st1" d="M60.77,0.64c-2.62,2.8-5.06,5.59-7.15,8.47c-3.44,4.76-6.05,9.65-6.96,14.25c-0.53,2.28-0.48,4.5-0.37,6.56 c0.03,1.04,0.47,1.98,0.52,2.95c0.36,0.95,0.63,1.88,1.04,2.82c1.72,3.74,4.84,7.8,8.76,12.17c3.84,4.44,8.4,9.13,12.56,15.04 c4.11,5.91,7.88,13.36,8.28,22.15c0.15,4.45-0.99,9.42-3.58,13.27c-0.55,0.85-1.15,1.64-1.79,2.36 c19.36-7.6,33.06-26.46,33.06-48.52C105.15,26.02,85.88,4.38,60.77,0.64z"/>
  <path class="st2" d="M57.7,98.12c1.75-1.98,2.82-4.07,3.14-5.85c0.32-1.8,0.06-3.36-0.51-5.19c-0.19-0.47-0.35-0.93-0.5-1.39 l-0.77-1.5c-0.39-1-1.07-2-1.68-2.98c-1.29-1.95-2.89-3.98-4.67-6c-3.64-4.1-8.11-8.36-12.63-13.44 c-4.4-5.12-9.22-11.28-11.79-19.56c-0.59-2.05-0.96-4.26-1.29-6.39c-0.07-2.19-0.24-4.42,0.05-6.53c0.37-2.1,0.52-4.25,1.21-6.23 c0.59-2.01,1.41-3.91,2.3-5.73c3.73-7.27,9.5-12.4,15.52-15.99c0.71-0.41,1.43-0.8,2.15-1.17C21.25,2.22,0,24.74,0,52.24 c0,28.19,22.33,51.18,50.27,52.22C53.16,102.49,55.74,100.39,57.7,98.12z"/>
  <g/>
  <g/>
  <g/>
  <g/>
  <g/>
  <g/>
</svg>